<?xml version="1.0" standalone="no"?>
<!DOCTYPE svg PUBLIC "-//W3C//DTD SVG 20010904//EN"
 "http://www.w3.org/TR/2001/REC-SVG-20010904/DTD/svg10.dtd">
<svg version="1.0" xmlns="http://www.w3.org/2000/svg"
 width="287.000000pt" height="36.000000pt" viewBox="0 0 287.000000 36.000000"
 preserveAspectRatio="xMidYMid meet">
<metadata>
Created by potrace 1.16, written by Peter Selinger 2001-2019
</metadata>
<g transform="translate(0.000000,36.000000) scale(0.100000,-0.100000)"
fill="#000000" stroke="none">
<path d="M116 340 c-47 -15 -93 -67 -106 -121 -35 -145 85 -257 214 -201 41
19 45 19 49 4 3 -9 5 12 5 48 0 48 -2 57 -7 35 -13 -51 -30 -74 -64 -83 -41
-11 -66 -2 -92 32 -17 23 -20 43 -20 121 0 115 18 148 81 152 48 3 72 -14 89
-64 l14 -38 -1 60 c0 33 -2 52 -5 43 -4 -15 -7 -15 -46 3 -46 20 -67 22 -111
9z"/>
<path d="M449 341 c-79 -26 -124 -97 -117 -187 8 -92 69 -148 163 -148 104 0
173 81 162 192 -6 61 -28 98 -73 124 -36 21 -100 30 -135 19z m80 -17 c34 -24
51 -74 51 -149 0 -107 -43 -178 -97 -159 -44 15 -67 57 -71 129 -6 85 3 128
34 165 29 34 49 37 83 14z"/>
<path d="M2712 339 c-23 -7 -38 -20 -49 -44 -23 -48 -5 -85 67 -136 69 -49 88
-81 65 -115 -34 -52 -125 -14 -125 52 0 12 -4 26 -10 29 -6 4 -10 -17 -10 -56
0 -45 3 -60 11 -52 7 7 22 6 51 -4 47 -16 98 -9 133 19 20 15 25 29 25 63 0
45 -13 61 -114 138 -59 45 -44 102 26 95 28 -3 36 -10 55 -48 l22 -45 0 55 c1
32 -3 50 -7 42 -7 -10 -16 -9 -45 3 -41 17 -48 17 -95 4z"/>
<path d="M682 328 c9 -7 45 -82 79 -165 44 -111 66 -153 78 -153 12 0 31 38
69 143 29 79 63 153 75 165 l21 22 -54 -1 c-43 0 -50 -2 -32 -9 16 -7 22 -17
21 -37 0 -38 -64 -209 -72 -196 -4 6 -22 51 -41 99 -19 49 -37 97 -41 106 -5
13 -1 20 16 27 18 7 5 10 -55 10 -66 1 -77 -1 -64 -11z"/>
<path d="M1023 329 c15 -9 17 -27 17 -154 0 -127 -2 -145 -17 -154 -13 -8 19
-10 113 -11 l131 0 -1 55 c-1 60 -10 72 -19 25 -10 -46 -42 -72 -85 -68 l-37
3 -3 73 c-3 67 -1 72 18 72 12 0 28 -13 40 -32 l20 -33 0 70 c-1 63 -2 68 -15
50 -26 -37 -36 -45 -51 -45 -12 0 -14 13 -12 73 l3 72 36 3 c30 3 41 -2 58
-24 11 -15 21 -35 21 -45 0 -11 3 -19 8 -19 4 0 8 23 9 50 l2 50 -127 0 c-91
-1 -122 -3 -109 -11z"/>
<path d="M1318 330 c21 -9 22 -14 22 -149 0 -133 -1 -141 -22 -155 -22 -15
-21 -16 26 -16 47 0 48 0 27 17 -20 17 -22 26 -19 125 l3 108 98 -125 c54 -69
104 -125 112 -125 13 0 15 26 15 155 0 136 2 155 18 164 13 8 6 10 -33 10 -38
0 -45 -2 -29 -9 13 -5 24 -21 28 -40 9 -46 8 -160 -2 -160 -5 0 -46 47 -92
105 l-85 105 -45 -1 c-37 0 -41 -2 -22 -9z"/>
<path d="M1650 333 c27 -10 30 -26 30 -158 0 -132 -3 -147 -30 -158 -8 -4 38
-6 102 -4 108 2 118 4 142 26 50 47 25 124 -44 138 l-29 5 31 22 c42 28 52 48
44 80 -10 41 -57 56 -168 55 -51 0 -86 -3 -78 -6z"/>
<path d="M1968 330 c21 -9 22 -13 22 -155 0 -142 -1 -146 -22 -155 -17 -6 0
-9 57 -9 44 1 73 3 65 6 -27 11 -30 26 -30 166 0 133 1 138 23 147 16 6 0 9
-58 9 -58 0 -74 -3 -57 -9z"/>
<path d="M2143 329 c15 -9 17 -27 17 -154 0 -127 -2 -145 -17 -154 -14 -8 1
-10 57 -10 56 0 71 2 58 10 -16 9 -18 27 -18 154 0 127 2 145 18 154 13 8 -2
10 -58 10 -56 0 -71 -2 -57 -10z"/>
<path d="M2323 329 c15 -9 17 -27 17 -146 0 -113 -3 -140 -17 -155 -15 -17
-14 -18 33 -17 39 0 44 2 27 9 -29 12 -34 36 -31 149 l3 94 99 -126 c54 -70
105 -127 113 -127 10 0 13 32 13 155 0 136 2 155 18 164 13 8 6 10 -33 10 -39
0 -45 -2 -28 -9 29 -12 35 -37 31 -133 l-3 -77 -89 110 c-87 108 -89 110 -130
110 -33 -1 -37 -3 -23 -11z"/>
</g>
</svg>
